# File exported by Houdini 17.5.327 (www.sidefx.com)
# 8 points
# 24 vertices
# 6 primitives
# Bounds: [-0.5, -0.5, 0] to [0.5, 0.5, 1]
g 
v -0.5 -0.5 0
v 0.5 -0.5 0
v 0.5 -0.5 1
v -0.5 -0.5 1
v -0.5 0.5 0
v 0.5 0.5 0
v 0.5 0.5 1
v -0.5 0.5 1
vt 0.333333343 0.666666687 0
vt 0.648949862 0.666666687 0
vt 0.648949862 0.982283175 0
vt 0.333333343 0.982283175 0
vt 0 0.666666687 0
vt 0.315616488 0.666666687 0
vt 0.315616488 0.982283175 0
vt 0 0.982283175 0
vt 0 0.333333343 0
vt 0.315616488 0.333333343 0
vt 0.315616488 0.648949862 0
vt 0 0.648949862 0
vt 0.333333343 0.333333343 0
vt 0.648949862 0.333333343 0
vt 0.648949862 0.648949862 0
vt 0.333333343 0.648949862 0
vt 0.648949862 0.315616488 0
vt 0.333333343 0.315616488 0
vt 0.333333343 0 0
vt 0.648949862 0 0
vt 0.315616488 0.315616488 0
vt 0 0.315616488 0
vt 0 0 0
vt 0.315616488 0 0
vn -0 -0 -1
vn 0 -0 -1
vn -0 -0 -1
vn -0 0 -1
vn 1 -0 -0
vn 1 -0 -0
vn 1 0 0
vn 1 -0 -0
vn -0 -0 1
vn 0 0 1
vn -0 -0 1
vn -0 -0 1
vn -1 0 -0
vn -1 -0 -0
vn -1 -0 0
vn -1 -0 -0
vn 0 -1 -0
vn -0 -1 -0
vn -0 -1 0
vn -0 -1 -0
vn -0 1 -0
vn -0 1 -0
vn 0 1 0
vn -0 1 -0
g Cube
f 2/1/1 1/2/2 5/3/3 6/4/4
f 3/5/5 2/6/6 6/7/7 7/8/8
f 4/9/9 3/10/10 7/11/11 8/12/12
f 1/13/13 4/14/14 8/15/15 5/16/16
f 3/17/17 4/18/18 1/19/19 2/20/20
f 6/21/21 5/22/22 8/23/23 7/24/24
